<svg xmlns="http://www.w3.org/2000/svg" width="72" height="151"><path data-name="iPhone 5c" d="M65.107 4.03a11.128 11.128 0 0 0-4.453-.85h-48a11.131 11.131 0 0 0-4.453.85 8.171 8.171 0 0 0-2.907 2.13 9 9 0 0 0-2.121 5.82v128.17a9 9 0 0 0 2.121 5.81 8.171 8.171 0 0 0 2.907 2.13 10.962 10.962 0 0 0 4.453.85h48a10.959 10.959 0 0 0 4.453-.85 8.175 8.175 0 0 0 2.908-2.13 9 9 0 0 0 2.12-5.81V11.98a9.008 9.008 0 0 0-2.12-5.82 8.175 8.175 0 0 0-2.908-2.13zm4.282 11.22v124.9a8.251 8.251 0 0 1-1.938 5.32 7.313 7.313 0 0 1-2.643 1.93 10.194 10.194 0 0 1-4.154.79h-48a10.2 10.2 0 0 1-4.154-.79 7.3 7.3 0 0 1-2.642-1.93 8.252 8.252 0 0 1-1.939-5.32V11.98a8.259 8.259 0 0 1 1.939-5.33A7.3 7.3 0 0 1 8.5 4.72a10.2 10.2 0 0 1 4.154-.79h48a10.194 10.194 0 0 1 4.154.79 7.313 7.313 0 0 1 2.643 1.93 8.258 8.258 0 0 1 1.938 5.33v3.27zm.012-10.28c-1.443-1.68-4.149-3.67-8.84-3.67h-.032V.9a.953.953 0 0 0-.906-.9H48.96a.95.95 0 0 0-.9.91v.39h-35.5c-4.691 0-7.4 1.99-8.84 3.67a10.963 10.963 0 0 0-2.6 7.09v9.58H.814a.787.787 0 0 0-.814.75v6.21a.787.787 0 0 0 .814.75h.306v3.11H.83a.9.9 0 0 0-.83.83v9.58a.863.863 0 0 0 .8.82h.315v2.57H.807a.852.852 0 0 0-.812.81v9.66a.888.888 0 0 0 .837.81h.283v82.7a10.99 10.99 0 0 0 2.6 7.1c1.443 1.67 4.149 3.66 8.84 3.66h48c4.691 0 7.4-1.99 8.84-3.66a10.989 10.989 0 0 0 2.6-7.1V12.06A10.962 10.962 0 0 0 69.4 4.97zM48.622.91a.4.4 0 0 1 .338-.35h10.663a.394.394 0 0 1 .346.34v.4H48.622V.91zM.813 28.79a.2.2 0 0 1-.2-.19v-6.21a.2.2 0 0 1 .2-.19h.306v6.59H.813zM.804 43.13a.311.311 0 0 1-.245-.26v-9.58a.351.351 0 0 1 .27-.27h.29v10.11H.8zm.032 13.84a.34.34 0 0 1-.277-.24v-9.66a.308.308 0 0 1 .252-.25h.308v10.15H.836zm70.418-41.63v124.9a10.244 10.244 0 0 1-2.417 6.61c-1.341 1.55-3.866 3.4-8.276 3.4h-48c-4.41 0-6.935-1.85-8.277-3.4a10.248 10.248 0 0 1-2.416-6.61V12.06a10.2 10.2 0 0 1 2.417-6.6c1.341-1.56 3.866-3.41 8.276-3.41h48c4.41 0 6.935 1.85 8.276 3.41a10.2 10.2 0 0 1 2.417 6.6v3.28zM36.56 10.52a1.59 1.59 0 1 0-1.586-1.59 1.587 1.587 0 0 0 1.586 1.59zm0-2.62a1.03 1.03 0 1 1-1.026 1.03A1.028 1.028 0 0 1 36.56 7.9zm0 1.62a.56.56 0 1 0-.56-.56.56.56 0 0 0 .56.56zm-5.083 6.57h10.166a1.5 1.5 0 0 0 0-3H31.477a1.5 1.5 0 0 0 0 3zm0-2.22h10.166a.708.708 0 0 1 .7.72.717.717 0 0 1-.7.73H31.477a.717.717 0 0 1-.7-.73.708.708 0 0 1 .7-.72zm5.083 119.47a6.55 6.55 0 1 0 6.528 6.55 6.544 6.544 0 0 0-6.528-6.55zm0 12.36a5.805 5.805 0 1 1 5.782-5.81 5.8 5.8 0 0 1-5.782 5.81zm1.4-8.36h-2.611a1.219 1.219 0 0 0-1.213 1.22v2.61a1.213 1.213 0 0 0 1.213 1.22h2.611a1.212 1.212 0 0 0 1.212-1.22v-2.61a1.219 1.219 0 0 0-1.213-1.22zm.466 3.83a.468.468 0 0 1-.466.47h-2.611a.468.468 0 0 1-.467-.47v-2.61a.468.468 0 0 1 .467-.47h2.611a.468.468 0 0 1 .466.47v2.61zm27.979-118.9H6.715a.744.744 0 0 0-.746.75v106.27a.744.744 0 0 0 .746.75H66.4a.745.745 0 0 0 .747-.75V23.02a.745.745 0 0 0-.747-.75zm0 107.02H6.715V23.02H66.4v106.27z" fill="#222" fill-rule="evenodd"/></svg>