<svg xmlns="http://www.w3.org/2000/svg" width="228" height="131"><path data-name="Macbook Pro" d="M227.64 123.7h-21.08a6.627 6.627 0 0 0 .38-2.24V6.9a6.912 6.912 0 0 0-6.92-6.9H28.01a6.912 6.912 0 0 0-6.92 6.9v114.56a6.627 6.627 0 0 0 .38 2.24H.36a.359.359 0 0 0-.36.36v3.52a.687.687 0 0 0 .26.59c.06.05.13.1.2.15a19.467 19.467 0 0 0 9.93 2.68h207.22a19.467 19.467 0 0 0 9.93-2.68c.09-.06.17-.13.25-.19a.6.6 0 0 0 .21-.5v-3.57a.372.372 0 0 0-.36-.36zm-206.07-2.24V6.9A6.438 6.438 0 0 1 28.01.48h172.01a6.438 6.438 0 0 1 6.44 6.42v114.56a6.147 6.147 0 0 1-.41 2.24h-18.83l-.02-.1-.56-2.5h16.79a2.39 2.39 0 0 0 2.39-2.39V6.81a5.712 5.712 0 0 0-5.71-5.7H27.92a5.712 5.712 0 0 0-5.71 5.7v111.9a2.39 2.39 0 0 0 2.39 2.39h16.24l-.56 2.5-.03.1H21.98a6.147 6.147 0 0 1-.41-2.24zm76.3 2.24H40.75l.58-2.58h144.82l.58 2.58H97.87zm31.76.48a2.511 2.511 0 0 1-2.25 2.09h-26.76a2.532 2.532 0 0 1-2.25-2.09h31.26zM24.6 120.63a1.918 1.918 0 0 1-1.91-1.92V6.81a5.226 5.226 0 0 1 5.23-5.22h172.19a5.226 5.226 0 0 1 5.23 5.22v111.9a1.918 1.918 0 0 1-1.91 1.92H24.6zM.48 124.18h97.41a2.984 2.984 0 0 0 2.73 2.56h26.76a2.984 2.984 0 0 0 2.73-2.56h97.41v3.45a.184.184 0 0 1-.02.12 1.923 1.923 0 0 1-.17.13H.67l-.12-.09a.2.2 0 0 1-.07-.21v-3.4zm217.13 6.34H10.39a19.824 19.824 0 0 1-8.93-2.16h225.08a19.824 19.824 0 0 1-8.93 2.16zM200.53 7.41H27.34a.6.6 0 0 0-.6.6v108.05a.6.6 0 0 0 .6.6h173.19a.6.6 0 0 0 .6-.6V8.01a.6.6 0 0 0-.6-.6zm0 108.65H27.34V8.01h173.19v108.05zM114.05 5.75a.955.955 0 1 0-.96-.96.96.96 0 0 0 .96.96zm0-1.44a.487.487 0 0 1 .48.48.48.48 0 0 1-.48.48.474.474 0 0 1-.48-.48.48.48 0 0 1 .48-.48zM78.54 130.24a.615.615 0 0 0 .14-.01 1.258 1.258 0 0 0 1.15-.36.311.311 0 0 0-.06-.34 2.671 2.671 0 0 0-1.44-.32h-.14a1.267 1.267 0 0 0-1.15.37.292.292 0 0 0 .06.33 2.6 2.6 0 0 0 1.44.33zm70.5-.01a.66.66 0 0 0 .14.01 2.631 2.631 0 0 0 1.45-.33.331.331 0 0 0 .06-.33 1.281 1.281 0 0 0-1.15-.37h-.15a2.671 2.671 0 0 0-1.44.32.311.311 0 0 0-.06.34 1.271 1.271 0 0 0 1.15.36zm78.6-6.53h-21.08a6.627 6.627 0 0 0 .38-2.24V6.9a6.912 6.912 0 0 0-6.92-6.9H28.01a6.912 6.912 0 0 0-6.92 6.9v114.56a6.627 6.627 0 0 0 .38 2.24H.36a.359.359 0 0 0-.36.36v3.52a.687.687 0 0 0 .26.59c.06.05.13.1.2.15a19.467 19.467 0 0 0 9.93 2.68h207.22a19.467 19.467 0 0 0 9.93-2.68c.09-.06.17-.13.25-.19a.6.6 0 0 0 .21-.5v-3.57a.372.372 0 0 0-.36-.36zm-206.07-2.24V6.9A6.438 6.438 0 0 1 28.01.48h172.01a6.438 6.438 0 0 1 6.44 6.42v114.56a6.147 6.147 0 0 1-.41 2.24h-18.83l-.02-.1-.56-2.5h16.79a2.39 2.39 0 0 0 2.39-2.39V6.81a5.712 5.712 0 0 0-5.71-5.7H27.92a5.712 5.712 0 0 0-5.71 5.7v111.9a2.39 2.39 0 0 0 2.39 2.39h16.24l-.56 2.5-.03.1H21.98a6.147 6.147 0 0 1-.41-2.24zm76.3 2.24H40.75l.58-2.58h144.82l.58 2.58H97.87zm31.76.48a2.511 2.511 0 0 1-2.25 2.09h-26.76a2.532 2.532 0 0 1-2.25-2.09h31.26zM24.6 120.63a1.918 1.918 0 0 1-1.91-1.92V6.81a5.226 5.226 0 0 1 5.23-5.22h172.19a5.226 5.226 0 0 1 5.23 5.22v111.9a1.918 1.918 0 0 1-1.91 1.92H24.6zM.48 124.18h97.41a2.984 2.984 0 0 0 2.73 2.56h26.76a2.984 2.984 0 0 0 2.73-2.56h97.41v3.45a.184.184 0 0 1-.02.12 1.923 1.923 0 0 1-.17.13H.67l-.12-.09a.2.2 0 0 1-.07-.21v-3.4zm217.13 6.34H10.39a19.824 19.824 0 0 1-8.93-2.16h225.08a19.824 19.824 0 0 1-8.93 2.16zM200.53 7.41H27.34a.6.6 0 0 0-.6.6v108.05a.6.6 0 0 0 .6.6h173.19a.6.6 0 0 0 .6-.6V8.01a.6.6 0 0 0-.6-.6zm0 108.65H27.34V8.01h173.19v108.05zM114.05 5.75a.955.955 0 1 0-.96-.96.96.96 0 0 0 .96.96zm0-1.44a.487.487 0 0 1 .48.48.48.48 0 0 1-.48.48.474.474 0 0 1-.48-.48.48.48 0 0 1 .48-.48zM78.54 130.24a.615.615 0 0 0 .14-.01 1.258 1.258 0 0 0 1.15-.36.311.311 0 0 0-.06-.34 2.671 2.671 0 0 0-1.44-.32h-.14a1.267 1.267 0 0 0-1.15.37.292.292 0 0 0 .06.33 2.6 2.6 0 0 0 1.44.33zm70.5-.01a.66.66 0 0 0 .14.01 2.631 2.631 0 0 0 1.45-.33.331.331 0 0 0 .06-.33 1.281 1.281 0 0 0-1.15-.37h-.15a2.671 2.671 0 0 0-1.44.32.311.311 0 0 0-.06.34 1.271 1.271 0 0 0 1.15.36z" fill="#222" fill-rule="evenodd"/></svg>