<svg xmlns="http://www.w3.org/2000/svg" width="32" height="32"><path data-name="Link Variant Symbol In Circular Button. Attribute as Robin Kylander from Flaticon.com" d="M12.522 19.48V16a.7.7 0 0 1 .695-.7h4.174a.693.693 0 0 0 .7-.69v-.7a.693.693 0 0 0-.7-.69h-5.565a1.389 1.389 0 0 0-1.391 1.39v6.26a1.389 1.389 0 0 0 1.391 1.39h4.87a1.39 1.39 0 0 0 1.391-1.39v-.7h-4.87a.692.692 0 0 1-.695-.69zm7.652-9.74H15.3a1.389 1.389 0 0 0-1.391 1.39v.7h4.87a.693.693 0 0 1 .695.69V16a.7.7 0 0 1-.695.7h-4.174a.7.7 0 0 1-.7-.7v2.09a.693.693 0 0 0 .7.69h5.565a1.39 1.39 0 0 0 1.391-1.39v-6.26a1.39 1.39 0 0 0-1.387-1.39zM16 0a16 16 0 1 0 16 16A16 16 0 0 0 16 0zm0 29.22A13.22 13.22 0 1 1 29.217 16 13.219 13.219 0 0 1 16 29.22z" fill="#fff" fill-rule="evenodd"/></svg>